<?xml version="1.0" encoding="UTF-8"?>
<svg id="Layer_1" data-name="Layer 1" xmlns="http://www.w3.org/2000/svg" viewBox="0 0 196.09 223.85">
  <defs>
    <style>
      .cls-1 {
        fill: #facd0c;
      }

      .cls-2 {
        fill: #f07a20;
      }

      .cls-3 {
        fill: #7cb341;
      }

      .cls-4 {
        fill: #f4931d;
      }

      .cls-5 {
        fill: #f8a836;
      }
    </style>
  </defs>
  <path class="cls-2" d="m48.97,139.98c3.59,1.96,7.18,3.91,10.76,5.89,12.51,6.94,25.02,13.89,37.51,20.86.7.39,1.17.22,1.77-.11,15.73-8.75,31.47-17.49,47.21-26.23.31-.17.65-.32.97-.47l.08.07c.02,1.04-.03,2.08-.03,3.12.03,17.72.02,35.43.02,53.15-1.68,1.21-3.55,2.1-5.34,3.11-14.32,8.06-28.66,16.11-42.97,24.18-.64.36-1.11.39-1.77.02-15.8-8.91-31.62-17.79-47.43-26.68-.28-.16-.54-.35-.81-.53,0-.4.03-.8.03-1.19,0-18.39,0-36.78,0-55.18l.02-.02Z"/>
  <path class="cls-4" d="m48.95,82.82c-.04.79-.12,1.59-.12,2.38,0,17.32,0,34.65,0,51.97,0,.94.09,1.88.13,2.81,0,0-.02.02-.02.02-.43-.06-.77.15-1.12.34-1.33.73-2.65,1.47-3.98,2.21-4.01,2.23-8.03,4.45-12.03,6.69-4.57,2.56-9.13,5.13-13.69,7.7-3.43,1.93-6.86,3.86-10.3,5.78-2.59,1.44-5.19,2.83-7.79,4.25-.01-.36-.04-.72-.04-1.08C0,128.94,0,92.01,0,55.07c0-.4.03-.8.04-1.19.32.16.66.31.97.5,5.39,3.23,10.77,6.47,16.16,9.7,10.1,6.04,20.21,12.07,30.32,18.11.46.28.88.65,1.46.64Z"/>
  <path class="cls-4" d="m147.18,139.93c.02-.29.04-.58.04-.87,0-18.48,0-36.95,0-55.43,0-.25-.02-.51-.03-.76l.07-.08c.52-.06.94-.36,1.37-.62,3.1-1.86,6.19-3.72,9.29-5.58,7.22-4.33,14.45-8.65,21.67-12.97,5.46-3.26,10.93-6.51,16.39-9.76.02.43.05.87.05,1.3,0,36.89,0,73.77,0,110.66,0,.48.22,1.02-.26,1.43-.14-.36-.42-.57-.75-.75-2.59-1.44-5.18-2.88-7.77-4.32-3.82-2.13-7.64-4.26-11.46-6.4-4.7-2.63-9.4-5.27-14.1-7.9-3.44-1.93-6.86-3.88-10.32-5.77-1.35-.74-2.59-1.71-4.12-2.1l-.08-.07Z"/>
  <path class="cls-1" d="m147.2,82.87c-3.71-2.18-7.43-4.35-11.13-6.55-12.36-7.34-24.71-14.69-37.06-22.03-.27-.16-.54-.35-.93-.6,1.92-1.07,3.74-2.09,5.57-3.1,14.24-7.91,28.48-15.82,42.72-23.73.28-.15.52-.4.88-.35,0,18.76.01,37.52.02,56.29l-.07.08Z"/>
  <path class="cls-5" d="m48.95,82.82c-.59.02-1-.36-1.46-.64-10.1-6.04-20.22-12.07-30.32-18.11-5.39-3.22-10.77-6.47-16.16-9.7-.31-.19-.64-.33-.97-.5.05-.36.38-.41.61-.55,15.85-8.87,31.7-17.74,47.56-26.6.22-.12.46-.21.69-.31.04.06.06.12.07.19,0,18.73,0,37.47,0,56.2h0Z"/>
  <path class="cls-5" d="m.04,166.96c2.6-1.42,5.2-2.82,7.79-4.25,3.44-1.91,6.87-3.85,10.3-5.78,4.57-2.57,9.12-5.14,13.69-7.7,4-2.24,8.02-4.46,12.03-6.69,1.33-.74,2.65-1.48,3.98-2.21.35-.19.69-.4,1.12-.34,0,18.39,0,36.78,0,55.18,0,.4-.02.8-.03,1.19-3.89-2.3-7.79-4.59-11.67-6.92-11.99-7.17-23.98-14.35-35.96-21.54-.45-.27-1.02-.4-1.25-.96Z"/>
  <path class="cls-5" d="m147.26,140c1.53.39,2.77,1.36,4.12,2.1,3.46,1.88,6.88,3.84,10.32,5.77,4.7,2.63,9.4,5.27,14.1,7.9,3.82,2.14,7.64,4.27,11.46,6.4,2.59,1.44,5.18,2.89,7.77,4.32.33.18.61.39.75.75-3.43,2.08-6.85,4.18-10.3,6.25-12.39,7.43-24.79,14.84-37.18,22.26-.34.2-.64.47-1.06.52,0-17.72.01-35.43-.02-53.15,0-1.04.05-2.08.03-3.12Z"/>
  <path class="cls-5" d="m147.27,82.79c0-18.76-.01-37.52-.02-56.29,3.03,1.47,5.91,3.21,8.85,4.85,12.81,7.14,25.62,14.31,38.42,21.48.52.29,1.15.45,1.48,1.03-5.46,3.25-10.93,6.5-16.39,9.76-7.23,4.32-14.45,8.64-21.67,12.97-3.1,1.86-6.2,3.72-9.29,5.58-.43.26-.85.56-1.37.62Z"/>
  <path class="cls-1" d="m48.96,82.81c0-18.73,0-37.47,0-56.2,3.94,2.15,7.89,4.28,11.81,6.45,12.38,6.85,24.74,13.72,37.11,20.58-1.88,1.41-3.97,2.49-5.98,3.69-13.96,8.32-27.93,16.62-41.9,24.93-.34.2-.7.37-1.05.56Z"/>
  <path class="cls-3" d="m97.89,53.65c-12.37-6.86-24.74-13.73-37.11-20.58-3.92-2.17-7.87-4.3-11.81-6.45,0-.07-.03-.13-.07-.19,4.73-2.58,9.46-5.18,14.2-7.75,11.31-6.12,22.62-12.23,33.93-18.34.22-.12.44-.23.65-.33.31.21.19.48.19.71.03,17.36.06,34.71.08,52.07,0,.29-.04.57-.07.86Z"/>
</svg>